<svg height="511pt" viewBox="0 -63 511.97867 511" width="511pt" xmlns="http://www.w3.org/2000/svg"><path d="m255.988281 384.488281c-110.675781 0-209.085937-64.875-250.707031-165.269531-7.042969-17-7.042969-36.480469 0-53.460938 41.621094-100.394531 140.03125-165.269531 250.707031-165.269531 110.679688 0 209.089844 64.875 250.710938 165.269531 7.039062 16.980469 7.039062 36.460938 0 53.460938-41.621094 100.394531-140.03125 165.269531-250.710938 165.269531zm0-352c-97.707031 0-184.488281 57.109375-221.140625 145.515625-3.816406 9.214844-3.816406 19.777344 0 28.992188 36.652344 88.382812 123.433594 145.492187 221.140625 145.492187s184.492188-57.109375 221.140625-145.511719c3.820313-9.195312 3.820313-19.777343 0-28.972656-36.648437-88.40625-123.433594-145.515625-221.140625-145.515625zm0 0"/><path d="m255.988281 277.824219c-47.058593 0-85.332031-38.273438-85.332031-85.335938 0-47.058593 38.273438-85.332031 85.332031-85.332031 47.0625 0 85.335938 38.273438 85.335938 85.332031 0 47.0625-38.273438 85.335938-85.335938 85.335938zm0-138.667969c-29.394531 0-53.332031 23.9375-53.332031 53.332031 0 29.398438 23.9375 53.335938 53.332031 53.335938 29.398438 0 53.335938-23.9375 53.335938-53.335938 0-29.394531-23.9375-53.332031-53.335938-53.332031zm0 0"/></svg>